<mxfile host="app.diagrams.net" modified="2020-12-22T11:53:14.130Z" agent="5.0 (Windows NT 10.0; Win64; x64) AppleWebKit/537.36 (KHTML, like Gecko) Chrome/87.0.4280.88 Safari/537.36" etag="EfQ7SsKjc0pYEhiT7mdB" version="14.1.1" type="github">
  <diagram id="LnlG92Ai7YdgMcjOEeVZ" name="Page-1">
    <mxGraphModel dx="2031" dy="1134" grid="1" gridSize="10" guides="1" tooltips="1" connect="1" arrows="1" fold="1" page="1" pageScale="1" pageWidth="1100" pageHeight="1100" math="0" shadow="0">
      <root>
        <mxCell id="0" />
        <mxCell id="1" parent="0" />
        <mxCell id="0GmbWY5BwfIkLPfSBu4r-1" value="" style="shape=mxgraph.cisco.switches.workgroup_switch;html=1;dashed=0;fillColor=#10739E;strokeColor=#ffffff;strokeWidth=2;verticalLabelPosition=bottom;verticalAlign=top;fontFamily=Helvetica;fontSize=36;fontColor=#FFB366" vertex="1" parent="1">
          <mxGeometry x="520" y="520" width="101" height="50" as="geometry" />
        </mxCell>
        <mxCell id="0GmbWY5BwfIkLPfSBu4r-3" value="" style="shape=mxgraph.cisco.hubs_and_gateways.100baset_hub;html=1;dashed=0;fillColor=#10739E;strokeColor=#ffffff;strokeWidth=2;verticalLabelPosition=bottom;verticalAlign=top;fontFamily=Helvetica;fontSize=36;fontColor=#FFB366" vertex="1" parent="1">
          <mxGeometry x="880" y="760" width="90" height="45" as="geometry" />
        </mxCell>
        <mxCell id="0GmbWY5BwfIkLPfSBu4r-4" value="" style="shape=mxgraph.cisco.hubs_and_gateways.100baset_hub;html=1;dashed=0;fillColor=#10739E;strokeColor=#ffffff;strokeWidth=2;verticalLabelPosition=bottom;verticalAlign=top;fontFamily=Helvetica;fontSize=36;fontColor=#FFB366" vertex="1" parent="1">
          <mxGeometry x="160" y="440" width="90" height="45" as="geometry" />
        </mxCell>
        <mxCell id="0GmbWY5BwfIkLPfSBu4r-5" value="" style="shape=mxgraph.cisco.hubs_and_gateways.100baset_hub;html=1;dashed=0;fillColor=#10739E;strokeColor=#ffffff;strokeWidth=2;verticalLabelPosition=bottom;verticalAlign=top;fontFamily=Helvetica;fontSize=36;fontColor=#FFB366" vertex="1" parent="1">
          <mxGeometry x="880" y="440" width="90" height="45" as="geometry" />
        </mxCell>
        <mxCell id="0GmbWY5BwfIkLPfSBu4r-6" value="" style="shape=mxgraph.cisco.hubs_and_gateways.100baset_hub;html=1;dashed=0;fillColor=#10739E;strokeColor=#ffffff;strokeWidth=2;verticalLabelPosition=bottom;verticalAlign=top;fontFamily=Helvetica;fontSize=36;fontColor=#FFB366" vertex="1" parent="1">
          <mxGeometry x="880" y="600" width="90" height="45" as="geometry" />
        </mxCell>
        <mxCell id="0GmbWY5BwfIkLPfSBu4r-7" value="" style="shape=mxgraph.cisco.hubs_and_gateways.100baset_hub;html=1;dashed=0;fillColor=#10739E;strokeColor=#ffffff;strokeWidth=2;verticalLabelPosition=bottom;verticalAlign=top;fontFamily=Helvetica;fontSize=36;fontColor=#FFB366" vertex="1" parent="1">
          <mxGeometry x="160" y="760" width="90" height="45" as="geometry" />
        </mxCell>
        <mxCell id="0GmbWY5BwfIkLPfSBu4r-8" value="" style="shape=mxgraph.cisco.hubs_and_gateways.100baset_hub;html=1;dashed=0;fillColor=#10739E;strokeColor=#ffffff;strokeWidth=2;verticalLabelPosition=bottom;verticalAlign=top;fontFamily=Helvetica;fontSize=36;fontColor=#FFB366" vertex="1" parent="1">
          <mxGeometry x="160" y="600" width="90" height="45" as="geometry" />
        </mxCell>
        <mxCell id="0GmbWY5BwfIkLPfSBu4r-9" value="" style="shape=mxgraph.cisco.hubs_and_gateways.100baset_hub;html=1;dashed=0;fillColor=#10739E;strokeColor=#ffffff;strokeWidth=2;verticalLabelPosition=bottom;verticalAlign=top;fontFamily=Helvetica;fontSize=36;fontColor=#FFB366" vertex="1" parent="1">
          <mxGeometry x="160" y="280" width="90" height="45" as="geometry" />
        </mxCell>
        <mxCell id="0GmbWY5BwfIkLPfSBu4r-10" value="" style="shape=mxgraph.cisco.hubs_and_gateways.100baset_hub;html=1;dashed=0;fillColor=#10739E;strokeColor=#ffffff;strokeWidth=2;verticalLabelPosition=bottom;verticalAlign=top;fontFamily=Helvetica;fontSize=36;fontColor=#FFB366" vertex="1" parent="1">
          <mxGeometry x="640" y="760" width="90" height="45" as="geometry" />
        </mxCell>
        <mxCell id="0GmbWY5BwfIkLPfSBu4r-11" value="" style="shape=mxgraph.cisco.hubs_and_gateways.100baset_hub;html=1;dashed=0;fillColor=#10739E;strokeColor=#ffffff;strokeWidth=2;verticalLabelPosition=bottom;verticalAlign=top;fontFamily=Helvetica;fontSize=36;fontColor=#FFB366" vertex="1" parent="1">
          <mxGeometry x="400" y="760" width="90" height="45" as="geometry" />
        </mxCell>
        <mxCell id="0GmbWY5BwfIkLPfSBu4r-13" value="" style="shape=mxgraph.cisco.hubs_and_gateways.100baset_hub;html=1;dashed=0;fillColor=#10739E;strokeColor=#ffffff;strokeWidth=2;verticalLabelPosition=bottom;verticalAlign=top;fontFamily=Helvetica;fontSize=36;fontColor=#FFB366" vertex="1" parent="1">
          <mxGeometry x="880" y="280" width="90" height="45" as="geometry" />
        </mxCell>
        <mxCell id="0GmbWY5BwfIkLPfSBu4r-14" value="" style="shape=mxgraph.cisco.hubs_and_gateways.100baset_hub;html=1;dashed=0;fillColor=#10739E;strokeColor=#ffffff;strokeWidth=2;verticalLabelPosition=bottom;verticalAlign=top;fontFamily=Helvetica;fontSize=36;fontColor=#FFB366" vertex="1" parent="1">
          <mxGeometry x="520" y="280" width="90" height="45" as="geometry" />
        </mxCell>
      </root>
    </mxGraphModel>
  </diagram>
</mxfile>
